{
    "asset" : {
        "copyright" : "spacewiz.dev",
        "generator" : "Khronos glTF Blender I/O v3.3.27",
        "version" : "2.0"
    },
    "scene" : 0,
    "scenes" : [
        {
            "extras" : {
                "td" : {},
                "slash_settings" : {},
                "svg_export" : {},
                "curvetools" : {},
                "NWBusyDrawing" : "",
                "NWLazySource" : "Material Output",
                "NWLazyTarget" : "Material Output",
                "uvp2_props" : {
                    "heuristic_enable" : 1
                },
                "uv_toolkit" : {},
                "muv_align_uv_enabled" : 0,
                "muv_copy_paste_uv_uvedit_unique_target" : 0,
                "print_3d" : {},
                "automirror" : {},
                "turn_camera" : {},
                "animall_properties" : {},
                "texToolsSettings" : {},
                "outline_to_svg_props" : {
                    "filepath" : "//star"
                }
            },
            "name" : "Scene",
            "nodes" : [
                0
            ]
        }
    ],
    "nodes" : [
        {
            "mesh" : 0,
            "name" : "planet",
            "rotation" : [
                0.47845426201820374,
                -0.49717435240745544,
                -0.4877958297729492,
                0.5347471833229065
            ],
            "scale" : [
                -8.499188423156738,
                -8.499189376831055,
                -8.499188423156738
            ],
            "translation" : [
                -21.164138793945312,
                -11.742147445678711,
                -23.75785255432129
            ]
        }
    ],
    "animations" : [
        {
            "channels" : [
                {
                    "sampler" : 0,
                    "target" : {
                        "node" : 0,
                        "path" : "translation"
                    }
                },
                {
                    "sampler" : 1,
                    "target" : {
                        "node" : 0,
                        "path" : "rotation"
                    }
                },
                {
                    "sampler" : 2,
                    "target" : {
                        "node" : 0,
                        "path" : "scale"
                    }
                }
            ],
            "name" : "planet",
            "samplers" : [
                {
                    "input" : 5,
                    "interpolation" : "LINEAR",
                    "output" : 6
                },
                {
                    "input" : 5,
                    "interpolation" : "LINEAR",
                    "output" : 7
                },
                {
                    "input" : 5,
                    "interpolation" : "LINEAR",
                    "output" : 8
                }
            ]
        }
    ],
    "materials" : [
        {
            "doubleSided" : true,
            "name" : "scene_planet_land",
            "pbrMetallicRoughness" : {
                "baseColorFactor" : [
                    0.800000011920929,
                    0.800000011920929,
                    0.800000011920929,
                    1
                ],
                "metallicFactor" : 0,
                "roughnessFactor" : 0.4000000059604645
            }
        }
    ],
    "meshes" : [
        {
            "name" : "Sphere",
            "primitives" : [
                {
                    "attributes" : {
                        "POSITION" : 0,
                        "NORMAL" : 1,
                        "TANGENT" : 2,
                        "TEXCOORD_0" : 3
                    },
                    "indices" : 4,
                    "material" : 0
                }
            ]
        }
    ],
    "accessors" : [
        {
            "bufferView" : 0,
            "componentType" : 5126,
            "count" : 4638,
            "max" : [
                0.9993924498558044,
                0.9919993281364441,
                0.9919995665550232
            ],
            "min" : [
                -0.9993924498558044,
                -0.9919998049736023,
                -0.9919998645782471
            ],
            "type" : "VEC3"
        },
        {
            "bufferView" : 1,
            "componentType" : 5126,
            "count" : 4638,
            "type" : "VEC3"
        },
        {
            "bufferView" : 2,
            "componentType" : 5126,
            "count" : 4638,
            "type" : "VEC4"
        },
        {
            "bufferView" : 3,
            "componentType" : 5126,
            "count" : 4638,
            "type" : "VEC2"
        },
        {
            "bufferView" : 4,
            "componentType" : 5123,
            "count" : 24192,
            "type" : "SCALAR"
        },
        {
            "bufferView" : 5,
            "componentType" : 5126,
            "count" : 25,
            "max" : [
                1
            ],
            "min" : [
                0
            ],
            "type" : "SCALAR"
        },
        {
            "bufferView" : 6,
            "componentType" : 5126,
            "count" : 25,
            "type" : "VEC3"
        },
        {
            "bufferView" : 7,
            "componentType" : 5126,
            "count" : 25,
            "type" : "VEC4"
        },
        {
            "bufferView" : 8,
            "componentType" : 5126,
            "count" : 25,
            "type" : "VEC3"
        }
    ],
    "bufferViews" : [
        {
            "buffer" : 0,
            "byteLength" : 55656,
            "byteOffset" : 0,
            "target" : 34962
        },
        {
            "buffer" : 0,
            "byteLength" : 55656,
            "byteOffset" : 55656,
            "target" : 34962
        },
        {
            "buffer" : 0,
            "byteLength" : 74208,
            "byteOffset" : 111312,
            "target" : 34962
        },
        {
            "buffer" : 0,
            "byteLength" : 37104,
            "byteOffset" : 185520,
            "target" : 34962
        },
        {
            "buffer" : 0,
            "byteLength" : 48384,
            "byteOffset" : 222624,
            "target" : 34963
        },
        {
            "buffer" : 0,
            "byteLength" : 100,
            "byteOffset" : 271008
        },
        {
            "buffer" : 0,
            "byteLength" : 300,
            "byteOffset" : 271108
        },
        {
            "buffer" : 0,
            "byteLength" : 400,
            "byteOffset" : 271408
        },
        {
            "buffer" : 0,
            "byteLength" : 300,
            "byteOffset" : 271808
        }
    ],
    "buffers" : [
        {
            "byteLength" : 272108,
            "uri" : "planet.bin"
        }
    ]
}
