<svg data-name="Camada 2" xmlns="http://www.w3.org/2000/svg" viewBox="0 0 666 666">
  <g data-name="Camada 1">
    <rect width="666" height="666" rx="90" ry="90" style="fill:#fff"/>
    <path d="M558.4 87c-5.02-10.11-8.35-35.49-15.52-44.22-4.79-5.83-14-14-27.22-9.69-30.54 9.95-50.78 38.69-50.78 38.69s-10.72 8.23-18 12c-5.31 2.75-12.45-3.02-23-1-12.99 2.48-21.8 7.87-21.8 7.87s-9.99-4.31-13.3-3.39c-3.68 1.03-9.77 7.22-10.7 10.93-.38 1.53.8 6.25.8 6.25s-30.51-5.84-40.53-4.03c-6.67 1.2-21.26 10.43-20.96 17.2.44 10.01 33.11 22.6 33.11 22.6s-25.63 25.57-40.63 58.57c-16.37 36.01-10.53 55.74-8 72 2.01 12.91 16 36 16 36s-2.2 2.48-5.67 3.98c-5.25 2.26-51.23-67.58-60.12-71.08 0 0-.67-5.21-1.38-6.79-2.12-4.74-12.43-16.65-12.43-16.65s.03-9.23-1.13-12.02c-.88-2.13-5.89-7.08-5.89-7.08l24.23-20.29s3.9 13.91 7.98 14.27c7.42.66 17.42-11.34 17.42-11.34s14 3 20-3c3.9-3.9-5.04-19.42-5.04-19.42s7.04-14.58 4.04-19.58c-3.71-6.18-21-2-21-2s-11-11-17.76-9.21c-6.4 1.69-7.24 18.21-7.24 18.21s-15.19 9.61-15.09 15.05c.09 4.95 10.48 10.18 10.48 10.18l-25.38 19.89s-4.65-6.55-7.07-7.35c-4.18-1.37-13.34 2.3-16.94 4.84-3.24 2.29-8.91 8.99-9.21 12.95-.25 3.25 4.57 12.21 4.57 12.21s-12 7.36-13.36 11.23c-.61 1.75 3.25 6.39 5 7 4.17 1.45 14.42-9.19 14.42-9.19s15.74 26.74 24.41 31.74c1.34.77 6.15.81 6.15.81l44.49 87.41s-10.52 22-17.47 38.23c-6 14-18.27 35.87-30 45-18 14-70.66 52.24-80.81 74.03-4.65 9.98-2.58 43.98-2.58 43.98s-8.41 8.11-19.61 13.99c-9.8 5.15-22.29 7.76-25.87 12.77-2.95 4.12-3.4 16.57.07 20.25 8.8 9.34 32.4.28 52.8-5.03 12.81-3.33 28-3 30.06-5.87 4.4-6.14 3.36-26.3 1.94-29.13-1-2 16.56-23.39 23.56-23.39 6.3 0 14 1 21 2 8.16 1.17 18.63 2.88 22.44 7.39 1.61 1.91 1 4 0 10-.68 4.07-12 38-14 41-3.76 5.64-12.9 12.41-15.73 18.57-1.48 3.23-1.91 10.94-.49 14.19 3.01 6.87 19.3 16.59 26.41 14.21 14.8-4.96 18.8-20.96 19.8-26.96.49-2.96 10-19 14-22 11.89-8.92 21-18 31.36-26.72 5.36-4.51 18.61-10.32 23.44-15.39 10.18-10.68 22.71-38.55 26.2-52.89 9-37 22.74-70.74 22.74-70.74s23.8 15.33 26.65 23.8c.92 2.73-.4 5.94-1.4 9.94-.21.86-3.93-.29-6 8-1 4-.41 6.86-2.02 8.28-1.87 1.64-7.49 1.64-9.39 3.23-2.47 2.08-4.94 8.91-4.49 12.11.25 1.76 3.43 4.66 3.09 6.41-.93 4.9-11.37 10.54-12.74 15.33-.71 2.47 1.08 7.96 2.77 9.88 3.59 4.09 15.8 6.73 21.08 5.4 7.98-2.01 18.32-16.84 22.84-23.72 3.18-4.84 7.59-16.47 8.86-24.93.63-4.19-1-7.34-1-9 0-4 8.76-16.71 8.06-22.72-2.2-19.08-42.06-76.28-42.06-76.28s5.08.66 25 10c26.7 12.52 57.92 36.55 65 46 9 12 34.53 31.38 34 25-1-12 .85-21.15-17-39-7-7-24.77-17.07-49-30-21.84-11.65-55-23-55-23s39.04-2.4 56-13c16-10 32-22 45-47 10.36-19.92 11.02-43.73 11.02-43.73s20.16 9.09 27.39 9.42c5.47.25 18.72-1.91 17.4-13.33-1.41-12.17-31.55-28.97-27.55-40.55 1.32-3.84 9.9-5.6 11.46-12.99 2.28-10.82-7.92-13.19-7.85-16.63.33-15.07-6.35-41.35-6.39-56.42-.02-7.48 4.78-29.55 4.78-29.55s10.04 9.72 14.27 11.46c4.63 1.91 18.25 1.91 19.84-2.84 1.21-3.61-8.16-8.22-9.86-11.63Z" style="fill-rule:evenodd"/>
    <path d="M466.04 151.64c-2.25 3.41-4.09 10.95-9.58 8.57-3.72-1.77-6.25-5.59-9.38-8.09-6.99-2.24-19.31-3.02-11.6-13.09.62-.87 2-2.44 2.37-3.43-.35-3.45-2.11-7.17-1.72-10.71-.26-5.6 6.34-4.14 9.82-2.95 3.01.92 6.52 3.2 9.48.96 12.24-5.88 12.18.25 13.69 10.58 2.93 3.1 7.41 5.57 9.41 9.5 1.64 6.37-8.35 6.86-12.48 8.66Z" style="fill-rule:evenodd;fill:#fff"/>
  </g>
</svg>
