<?xml version="1.0" encoding="UTF-8"?>
<svg id="favicon" xmlns="http://www.w3.org/2000/svg" viewBox="0 0 1024 1024">
	<defs>
		<style>
			#star {
				fill: #15191E;
				fill-rule: evenodd;
			}

			@media (prefers-color-scheme: dark) {
				#star {
					fill: #FAFAFA;
					fill-rule: evenodd;
				}
			}
		</style>
	</defs>
	<path id="star"
		d="M892.89,886.32c62.09-96.43-20.63-314.69-20.63-314.69,0,0,139.77-170.07,105.62-292.81-22.21-79.85-287.09-64.35-287.09-64.35,0,0-140.13-209.4-226.32-202.78-106.59,8.19-174.6,286.06-174.6,286.06,0,0-221.38,74.48-247.11,178.72-24.37,98.73,182.86,223.22,182.86,223.22,0,0,14.43,272.61,85.35,308.45,64.56,32.63,280.95-130.21,280.95-130.21,0,0,266.9,61.33,300.99,8.39Z" />
</svg>