{
  "asset": {
    "generator": "Khronos glTF Blender I/O v3.3.27",
    "version": "2.0"
  },
  "scene": 0,
  "scenes": [
    {
      "name": "Scene",
      "nodes": [
        0
      ]
    }
  ],
  "nodes": [
    {
      "mesh": 0,
      "name": "icon",
      "rotation": [
        0.7071068286895752,
        0,
        0,
        0.7071068286895752
      ]
    }
  ],
  "meshes": [
    {
      "name": "Text.005",
      "primitives": [
        {
          "attributes": {
            "POSITION": 0,
            "NORMAL": 1,
            "TEXCOORD_0": 2
          },
          "indices": 3
        }
      ]
    }
  ],
  "accessors": [
    {
      "bufferView": 0,
      "componentType": 5126,
      "count": 2526,
      "max": [
        0.24234147369861603,
        0.11567650735378265,
        0.30231186747550964
      ],
      "min": [
        -0.2647084593772888,
        -0.10000186413526535,
        -0.435324102640152
      ],
      "type": "VEC3"
    },
    {
      "bufferView": 1,
      "componentType": 5126,
      "count": 2526,
      "type": "VEC3"
    },
    {
      "bufferView": 2,
      "componentType": 5126,
      "count": 2526,
      "type": "VEC2"
    },
    {
      "bufferView": 3,
      "componentType": 5123,
      "count": 4923,
      "type": "SCALAR"
    }
  ],
  "bufferViews": [
    {
      "buffer": 0,
      "byteLength": 30312,
      "byteOffset": 0,
      "target": 34962
    },
    {
      "buffer": 0,
      "byteLength": 30312,
      "byteOffset": 30312,
      "target": 34962
    },
    {
      "buffer": 0,
      "byteLength": 20208,
      "byteOffset": 60624,
      "target": 34962
    },
    {
      "buffer": 0,
      "byteLength": 9848,
      "byteOffset": 80832,
      "target": 34963
    }
  ],
  "buffers": [
    {
      "uri": "product_model-apps_placeholder_data.bin",
      "byteLength": 90680
    }
  ]
}